<mxfile host="app.diagrams.net" modified="2020-10-20T12:03:59.671Z" agent="5.0 (Windows)" etag="UP7gyMy1Dx6kfuowfNPN" version="13.8.0" type="github">
  <diagram id="xnlWXwwwXFNJxbHEYj1L" name="Page-1">
    <mxGraphModel dx="1185" dy="693" grid="1" gridSize="10" guides="0" tooltips="1" connect="1" arrows="1" fold="1" page="1" pageScale="1" pageWidth="1600" pageHeight="900" math="0" shadow="0">
      <root>
        <mxCell id="0" />
        <mxCell id="1" parent="0" />
        <mxCell id="tcsV4JsmrNK6wtAPweMv-135" value="" style="fontSize=12;html=1;endArrow=ERmany;edgeStyle=entityRelationEdgeStyle;" edge="1" parent="1" source="tcsV4JsmrNK6wtAPweMv-1" target="tcsV4JsmrNK6wtAPweMv-122">
          <mxGeometry width="100" height="100" relative="1" as="geometry">
            <mxPoint x="430" y="360" as="sourcePoint" />
            <mxPoint x="550" y="300" as="targetPoint" />
          </mxGeometry>
        </mxCell>
        <mxCell id="tcsV4JsmrNK6wtAPweMv-146" value="" style="fontSize=12;html=1;endArrow=none;endFill=1;startArrow=ERmany;startFill=1;edgeStyle=entityRelationEdgeStyle;" edge="1" parent="1" source="tcsV4JsmrNK6wtAPweMv-122" target="tcsV4JsmrNK6wtAPweMv-101">
          <mxGeometry width="100" height="100" relative="1" as="geometry">
            <mxPoint x="740" y="320" as="sourcePoint" />
            <mxPoint x="880" y="320" as="targetPoint" />
          </mxGeometry>
        </mxCell>
        <mxCell id="tcsV4JsmrNK6wtAPweMv-147" value="" style="edgeStyle=entityRelationEdgeStyle;fontSize=12;html=1;endArrow=ERmany;entryX=0;entryY=0.5;entryDx=0;entryDy=0;" edge="1" parent="1" source="tcsV4JsmrNK6wtAPweMv-47" target="tcsV4JsmrNK6wtAPweMv-35">
          <mxGeometry width="100" height="100" relative="1" as="geometry">
            <mxPoint x="50" y="479.9999999999999" as="sourcePoint" />
            <mxPoint x="320" y="440" as="targetPoint" />
          </mxGeometry>
        </mxCell>
        <mxCell id="tcsV4JsmrNK6wtAPweMv-148" value="" style="edgeStyle=entityRelationEdgeStyle;fontSize=12;html=1;endArrow=ERmany;" edge="1" parent="1" source="tcsV4JsmrNK6wtAPweMv-75">
          <mxGeometry width="100" height="100" relative="1" as="geometry">
            <mxPoint x="120" y="199.9999999999999" as="sourcePoint" />
            <mxPoint x="360" y="320" as="targetPoint" />
          </mxGeometry>
        </mxCell>
        <mxCell id="tcsV4JsmrNK6wtAPweMv-101" value="Customer" style="shape=table;startSize=30;container=1;collapsible=1;childLayout=tableLayout;fixedRows=1;rowLines=0;fontStyle=1;align=center;resizeLast=1;" vertex="1" parent="1">
          <mxGeometry x="920" y="160" width="180" height="160" as="geometry" />
        </mxCell>
        <mxCell id="tcsV4JsmrNK6wtAPweMv-102" value="" style="shape=partialRectangle;collapsible=0;dropTarget=0;pointerEvents=0;fillColor=none;top=0;left=0;bottom=1;right=0;points=[[0,0.5],[1,0.5]];portConstraint=eastwest;" vertex="1" parent="tcsV4JsmrNK6wtAPweMv-101">
          <mxGeometry y="30" width="180" height="30" as="geometry" />
        </mxCell>
        <mxCell id="tcsV4JsmrNK6wtAPweMv-103" value="PK" style="shape=partialRectangle;connectable=0;fillColor=none;top=0;left=0;bottom=0;right=0;fontStyle=1;overflow=hidden;" vertex="1" parent="tcsV4JsmrNK6wtAPweMv-102">
          <mxGeometry width="30" height="30" as="geometry" />
        </mxCell>
        <mxCell id="tcsV4JsmrNK6wtAPweMv-104" value="Customer_id" style="shape=partialRectangle;connectable=0;fillColor=none;top=0;left=0;bottom=0;right=0;align=left;spacingLeft=6;fontStyle=5;overflow=hidden;" vertex="1" parent="tcsV4JsmrNK6wtAPweMv-102">
          <mxGeometry x="30" width="150" height="30" as="geometry" />
        </mxCell>
        <mxCell id="tcsV4JsmrNK6wtAPweMv-105" value="" style="shape=partialRectangle;collapsible=0;dropTarget=0;pointerEvents=0;fillColor=none;top=0;left=0;bottom=0;right=0;points=[[0,0.5],[1,0.5]];portConstraint=eastwest;" vertex="1" parent="tcsV4JsmrNK6wtAPweMv-101">
          <mxGeometry y="60" width="180" height="30" as="geometry" />
        </mxCell>
        <mxCell id="tcsV4JsmrNK6wtAPweMv-106" value="" style="shape=partialRectangle;connectable=0;fillColor=none;top=0;left=0;bottom=0;right=0;editable=1;overflow=hidden;" vertex="1" parent="tcsV4JsmrNK6wtAPweMv-105">
          <mxGeometry width="30" height="30" as="geometry" />
        </mxCell>
        <mxCell id="tcsV4JsmrNK6wtAPweMv-107" value="Customer_Name" style="shape=partialRectangle;connectable=0;fillColor=none;top=0;left=0;bottom=0;right=0;align=left;spacingLeft=6;overflow=hidden;" vertex="1" parent="tcsV4JsmrNK6wtAPweMv-105">
          <mxGeometry x="30" width="150" height="30" as="geometry" />
        </mxCell>
        <mxCell id="tcsV4JsmrNK6wtAPweMv-108" value="" style="shape=partialRectangle;collapsible=0;dropTarget=0;pointerEvents=0;fillColor=none;top=0;left=0;bottom=0;right=0;points=[[0,0.5],[1,0.5]];portConstraint=eastwest;" vertex="1" parent="tcsV4JsmrNK6wtAPweMv-101">
          <mxGeometry y="90" width="180" height="30" as="geometry" />
        </mxCell>
        <mxCell id="tcsV4JsmrNK6wtAPweMv-109" value="" style="shape=partialRectangle;connectable=0;fillColor=none;top=0;left=0;bottom=0;right=0;editable=1;overflow=hidden;" vertex="1" parent="tcsV4JsmrNK6wtAPweMv-108">
          <mxGeometry width="30" height="30" as="geometry" />
        </mxCell>
        <mxCell id="tcsV4JsmrNK6wtAPweMv-110" value="Customer_Address" style="shape=partialRectangle;connectable=0;fillColor=none;top=0;left=0;bottom=0;right=0;align=left;spacingLeft=6;overflow=hidden;" vertex="1" parent="tcsV4JsmrNK6wtAPweMv-108">
          <mxGeometry x="30" width="150" height="30" as="geometry" />
        </mxCell>
        <mxCell id="tcsV4JsmrNK6wtAPweMv-111" value="" style="shape=partialRectangle;collapsible=0;dropTarget=0;pointerEvents=0;fillColor=none;top=0;left=0;bottom=0;right=0;points=[[0,0.5],[1,0.5]];portConstraint=eastwest;" vertex="1" parent="tcsV4JsmrNK6wtAPweMv-101">
          <mxGeometry y="120" width="180" height="30" as="geometry" />
        </mxCell>
        <mxCell id="tcsV4JsmrNK6wtAPweMv-112" value="" style="shape=partialRectangle;connectable=0;fillColor=none;top=0;left=0;bottom=0;right=0;editable=1;overflow=hidden;" vertex="1" parent="tcsV4JsmrNK6wtAPweMv-111">
          <mxGeometry width="30" height="30" as="geometry" />
        </mxCell>
        <mxCell id="tcsV4JsmrNK6wtAPweMv-113" value="Customer_OtherDetails" style="shape=partialRectangle;connectable=0;fillColor=none;top=0;left=0;bottom=0;right=0;align=left;spacingLeft=6;overflow=hidden;" vertex="1" parent="tcsV4JsmrNK6wtAPweMv-111">
          <mxGeometry x="30" width="150" height="30" as="geometry" />
        </mxCell>
        <mxCell id="tcsV4JsmrNK6wtAPweMv-122" value="Orders" style="shape=table;startSize=30;container=1;collapsible=1;childLayout=tableLayout;fixedRows=1;rowLines=0;fontStyle=1;align=center;resizeLast=1;" vertex="1" parent="1">
          <mxGeometry x="640" y="160" width="180" height="180" as="geometry" />
        </mxCell>
        <mxCell id="tcsV4JsmrNK6wtAPweMv-123" value="" style="shape=partialRectangle;collapsible=0;dropTarget=0;pointerEvents=0;fillColor=none;top=0;left=0;bottom=1;right=0;points=[[0,0.5],[1,0.5]];portConstraint=eastwest;" vertex="1" parent="tcsV4JsmrNK6wtAPweMv-122">
          <mxGeometry y="30" width="180" height="30" as="geometry" />
        </mxCell>
        <mxCell id="tcsV4JsmrNK6wtAPweMv-124" value="PK" style="shape=partialRectangle;connectable=0;fillColor=none;top=0;left=0;bottom=0;right=0;fontStyle=1;overflow=hidden;" vertex="1" parent="tcsV4JsmrNK6wtAPweMv-123">
          <mxGeometry width="30" height="30" as="geometry" />
        </mxCell>
        <mxCell id="tcsV4JsmrNK6wtAPweMv-125" value="Order_id" style="shape=partialRectangle;connectable=0;fillColor=none;top=0;left=0;bottom=0;right=0;align=left;spacingLeft=6;fontStyle=5;overflow=hidden;" vertex="1" parent="tcsV4JsmrNK6wtAPweMv-123">
          <mxGeometry x="30" width="150" height="30" as="geometry" />
        </mxCell>
        <mxCell id="tcsV4JsmrNK6wtAPweMv-132" value="" style="shape=partialRectangle;collapsible=0;dropTarget=0;pointerEvents=0;fillColor=none;top=0;left=0;bottom=0;right=0;points=[[0,0.5],[1,0.5]];portConstraint=eastwest;" vertex="1" parent="tcsV4JsmrNK6wtAPweMv-122">
          <mxGeometry y="60" width="180" height="30" as="geometry" />
        </mxCell>
        <mxCell id="tcsV4JsmrNK6wtAPweMv-133" value="" style="shape=partialRectangle;connectable=0;fillColor=none;top=0;left=0;bottom=0;right=0;editable=1;overflow=hidden;" vertex="1" parent="tcsV4JsmrNK6wtAPweMv-132">
          <mxGeometry width="30" height="30" as="geometry" />
        </mxCell>
        <mxCell id="tcsV4JsmrNK6wtAPweMv-134" value="Product_id" style="shape=partialRectangle;connectable=0;fillColor=none;top=0;left=0;bottom=0;right=0;align=left;spacingLeft=6;overflow=hidden;" vertex="1" parent="tcsV4JsmrNK6wtAPweMv-132">
          <mxGeometry x="30" width="150" height="30" as="geometry" />
        </mxCell>
        <mxCell id="tcsV4JsmrNK6wtAPweMv-142" value="" style="shape=partialRectangle;collapsible=0;dropTarget=0;pointerEvents=0;fillColor=none;top=0;left=0;bottom=0;right=0;points=[[0,0.5],[1,0.5]];portConstraint=eastwest;" vertex="1" parent="tcsV4JsmrNK6wtAPweMv-122">
          <mxGeometry y="90" width="180" height="30" as="geometry" />
        </mxCell>
        <mxCell id="tcsV4JsmrNK6wtAPweMv-143" value="" style="shape=partialRectangle;connectable=0;fillColor=none;top=0;left=0;bottom=0;right=0;editable=1;overflow=hidden;" vertex="1" parent="tcsV4JsmrNK6wtAPweMv-142">
          <mxGeometry width="30" height="30" as="geometry" />
        </mxCell>
        <mxCell id="tcsV4JsmrNK6wtAPweMv-144" value="Customer_id" style="shape=partialRectangle;connectable=0;fillColor=none;top=0;left=0;bottom=0;right=0;align=left;spacingLeft=6;overflow=hidden;" vertex="1" parent="tcsV4JsmrNK6wtAPweMv-142">
          <mxGeometry x="30" width="150" height="30" as="geometry" />
        </mxCell>
        <mxCell id="tcsV4JsmrNK6wtAPweMv-126" value="" style="shape=partialRectangle;collapsible=0;dropTarget=0;pointerEvents=0;fillColor=none;top=0;left=0;bottom=0;right=0;points=[[0,0.5],[1,0.5]];portConstraint=eastwest;" vertex="1" parent="tcsV4JsmrNK6wtAPweMv-122">
          <mxGeometry y="120" width="180" height="30" as="geometry" />
        </mxCell>
        <mxCell id="tcsV4JsmrNK6wtAPweMv-127" value="" style="shape=partialRectangle;connectable=0;fillColor=none;top=0;left=0;bottom=0;right=0;editable=1;overflow=hidden;" vertex="1" parent="tcsV4JsmrNK6wtAPweMv-126">
          <mxGeometry width="30" height="30" as="geometry" />
        </mxCell>
        <mxCell id="tcsV4JsmrNK6wtAPweMv-128" value="Date" style="shape=partialRectangle;connectable=0;fillColor=none;top=0;left=0;bottom=0;right=0;align=left;spacingLeft=6;overflow=hidden;" vertex="1" parent="tcsV4JsmrNK6wtAPweMv-126">
          <mxGeometry x="30" width="150" height="30" as="geometry" />
        </mxCell>
        <mxCell id="tcsV4JsmrNK6wtAPweMv-129" value="" style="shape=partialRectangle;collapsible=0;dropTarget=0;pointerEvents=0;fillColor=none;top=0;left=0;bottom=0;right=0;points=[[0,0.5],[1,0.5]];portConstraint=eastwest;" vertex="1" parent="tcsV4JsmrNK6wtAPweMv-122">
          <mxGeometry y="150" width="180" height="30" as="geometry" />
        </mxCell>
        <mxCell id="tcsV4JsmrNK6wtAPweMv-130" value="" style="shape=partialRectangle;connectable=0;fillColor=none;top=0;left=0;bottom=0;right=0;editable=1;overflow=hidden;" vertex="1" parent="tcsV4JsmrNK6wtAPweMv-129">
          <mxGeometry width="30" height="30" as="geometry" />
        </mxCell>
        <mxCell id="tcsV4JsmrNK6wtAPweMv-131" value="Other_details" style="shape=partialRectangle;connectable=0;fillColor=none;top=0;left=0;bottom=0;right=0;align=left;spacingLeft=6;overflow=hidden;" vertex="1" parent="tcsV4JsmrNK6wtAPweMv-129">
          <mxGeometry x="30" width="150" height="30" as="geometry" />
        </mxCell>
        <mxCell id="tcsV4JsmrNK6wtAPweMv-1" value="Product" style="shape=table;startSize=30;container=1;collapsible=1;childLayout=tableLayout;fixedRows=1;rowLines=0;fontStyle=1;align=center;resizeLast=1;" vertex="1" parent="1">
          <mxGeometry x="360" y="160" width="180" height="220" as="geometry" />
        </mxCell>
        <mxCell id="tcsV4JsmrNK6wtAPweMv-2" value="" style="shape=partialRectangle;collapsible=0;dropTarget=0;pointerEvents=0;fillColor=none;top=0;left=0;bottom=1;right=0;points=[[0,0.5],[1,0.5]];portConstraint=eastwest;" vertex="1" parent="tcsV4JsmrNK6wtAPweMv-1">
          <mxGeometry y="30" width="180" height="30" as="geometry" />
        </mxCell>
        <mxCell id="tcsV4JsmrNK6wtAPweMv-3" value="PK" style="shape=partialRectangle;connectable=0;fillColor=none;top=0;left=0;bottom=0;right=0;fontStyle=1;overflow=hidden;" vertex="1" parent="tcsV4JsmrNK6wtAPweMv-2">
          <mxGeometry width="30" height="30" as="geometry" />
        </mxCell>
        <mxCell id="tcsV4JsmrNK6wtAPweMv-4" value="Product_id" style="shape=partialRectangle;connectable=0;fillColor=none;top=0;left=0;bottom=0;right=0;align=left;spacingLeft=6;fontStyle=5;overflow=hidden;" vertex="1" parent="tcsV4JsmrNK6wtAPweMv-2">
          <mxGeometry x="30" width="150" height="30" as="geometry" />
        </mxCell>
        <mxCell id="tcsV4JsmrNK6wtAPweMv-5" value="" style="shape=partialRectangle;collapsible=0;dropTarget=0;pointerEvents=0;fillColor=none;top=0;left=0;bottom=0;right=0;points=[[0,0.5],[1,0.5]];portConstraint=eastwest;" vertex="1" parent="tcsV4JsmrNK6wtAPweMv-1">
          <mxGeometry y="60" width="180" height="30" as="geometry" />
        </mxCell>
        <mxCell id="tcsV4JsmrNK6wtAPweMv-6" value="" style="shape=partialRectangle;connectable=0;fillColor=none;top=0;left=0;bottom=0;right=0;editable=1;overflow=hidden;" vertex="1" parent="tcsV4JsmrNK6wtAPweMv-5">
          <mxGeometry width="30" height="30" as="geometry" />
        </mxCell>
        <mxCell id="tcsV4JsmrNK6wtAPweMv-7" value="Type_of_component" style="shape=partialRectangle;connectable=0;fillColor=none;top=0;left=0;bottom=0;right=0;align=left;spacingLeft=6;overflow=hidden;" vertex="1" parent="tcsV4JsmrNK6wtAPweMv-5">
          <mxGeometry x="30" width="150" height="30" as="geometry" />
        </mxCell>
        <mxCell id="tcsV4JsmrNK6wtAPweMv-8" value="" style="shape=partialRectangle;collapsible=0;dropTarget=0;pointerEvents=0;fillColor=none;top=0;left=0;bottom=0;right=0;points=[[0,0.5],[1,0.5]];portConstraint=eastwest;" vertex="1" parent="tcsV4JsmrNK6wtAPweMv-1">
          <mxGeometry y="90" width="180" height="30" as="geometry" />
        </mxCell>
        <mxCell id="tcsV4JsmrNK6wtAPweMv-9" value="" style="shape=partialRectangle;connectable=0;fillColor=none;top=0;left=0;bottom=0;right=0;editable=1;overflow=hidden;" vertex="1" parent="tcsV4JsmrNK6wtAPweMv-8">
          <mxGeometry width="30" height="30" as="geometry" />
        </mxCell>
        <mxCell id="tcsV4JsmrNK6wtAPweMv-10" value="Price" style="shape=partialRectangle;connectable=0;fillColor=none;top=0;left=0;bottom=0;right=0;align=left;spacingLeft=6;overflow=hidden;" vertex="1" parent="tcsV4JsmrNK6wtAPweMv-8">
          <mxGeometry x="30" width="150" height="30" as="geometry" />
        </mxCell>
        <mxCell id="tcsV4JsmrNK6wtAPweMv-11" value="" style="shape=partialRectangle;collapsible=0;dropTarget=0;pointerEvents=0;fillColor=none;top=0;left=0;bottom=0;right=0;points=[[0,0.5],[1,0.5]];portConstraint=eastwest;" vertex="1" parent="tcsV4JsmrNK6wtAPweMv-1">
          <mxGeometry y="120" width="180" height="30" as="geometry" />
        </mxCell>
        <mxCell id="tcsV4JsmrNK6wtAPweMv-12" value="" style="shape=partialRectangle;connectable=0;fillColor=none;top=0;left=0;bottom=0;right=0;editable=1;overflow=hidden;" vertex="1" parent="tcsV4JsmrNK6wtAPweMv-11">
          <mxGeometry width="30" height="30" as="geometry" />
        </mxCell>
        <mxCell id="tcsV4JsmrNK6wtAPweMv-13" value="Quantity" style="shape=partialRectangle;connectable=0;fillColor=none;top=0;left=0;bottom=0;right=0;align=left;spacingLeft=6;overflow=hidden;" vertex="1" parent="tcsV4JsmrNK6wtAPweMv-11">
          <mxGeometry x="30" width="150" height="30" as="geometry" />
        </mxCell>
        <mxCell id="tcsV4JsmrNK6wtAPweMv-44" value="" style="shape=partialRectangle;collapsible=0;dropTarget=0;pointerEvents=0;fillColor=none;top=0;left=0;bottom=0;right=0;points=[[0,0.5],[1,0.5]];portConstraint=eastwest;" vertex="1" parent="tcsV4JsmrNK6wtAPweMv-1">
          <mxGeometry y="150" width="180" height="30" as="geometry" />
        </mxCell>
        <mxCell id="tcsV4JsmrNK6wtAPweMv-45" value="" style="shape=partialRectangle;connectable=0;fillColor=none;top=0;left=0;bottom=0;right=0;editable=1;overflow=hidden;" vertex="1" parent="tcsV4JsmrNK6wtAPweMv-44">
          <mxGeometry width="30" height="30" as="geometry" />
        </mxCell>
        <mxCell id="tcsV4JsmrNK6wtAPweMv-46" value="Manufacturer" style="shape=partialRectangle;connectable=0;fillColor=none;top=0;left=0;bottom=0;right=0;align=left;spacingLeft=6;overflow=hidden;" vertex="1" parent="tcsV4JsmrNK6wtAPweMv-44">
          <mxGeometry x="30" width="150" height="30" as="geometry" />
        </mxCell>
        <mxCell id="tcsV4JsmrNK6wtAPweMv-35" value="" style="shape=partialRectangle;collapsible=0;dropTarget=0;pointerEvents=0;fillColor=none;top=0;left=0;bottom=0;right=0;points=[[0,0.5],[1,0.5]];portConstraint=eastwest;" vertex="1" parent="tcsV4JsmrNK6wtAPweMv-1">
          <mxGeometry y="180" width="180" height="30" as="geometry" />
        </mxCell>
        <mxCell id="tcsV4JsmrNK6wtAPweMv-36" value="" style="shape=partialRectangle;connectable=0;fillColor=none;top=0;left=0;bottom=0;right=0;editable=1;overflow=hidden;" vertex="1" parent="tcsV4JsmrNK6wtAPweMv-35">
          <mxGeometry width="30" height="30" as="geometry" />
        </mxCell>
        <mxCell id="tcsV4JsmrNK6wtAPweMv-37" value="Description" style="shape=partialRectangle;connectable=0;fillColor=none;top=0;left=0;bottom=0;right=0;align=left;spacingLeft=6;overflow=hidden;" vertex="1" parent="tcsV4JsmrNK6wtAPweMv-35">
          <mxGeometry x="30" width="150" height="30" as="geometry" />
        </mxCell>
        <mxCell id="tcsV4JsmrNK6wtAPweMv-47" value="Manufacturers" style="shape=table;startSize=30;container=1;collapsible=1;childLayout=tableLayout;fixedRows=1;rowLines=0;fontStyle=1;align=center;resizeLast=1;" vertex="1" parent="1">
          <mxGeometry x="40" y="560" width="180" height="310" as="geometry" />
        </mxCell>
        <mxCell id="tcsV4JsmrNK6wtAPweMv-48" value="" style="shape=partialRectangle;collapsible=0;dropTarget=0;pointerEvents=0;fillColor=none;top=0;left=0;bottom=1;right=0;points=[[0,0.5],[1,0.5]];portConstraint=eastwest;" vertex="1" parent="tcsV4JsmrNK6wtAPweMv-47">
          <mxGeometry y="30" width="180" height="30" as="geometry" />
        </mxCell>
        <mxCell id="tcsV4JsmrNK6wtAPweMv-49" value="PK" style="shape=partialRectangle;connectable=0;fillColor=none;top=0;left=0;bottom=0;right=0;fontStyle=1;overflow=hidden;" vertex="1" parent="tcsV4JsmrNK6wtAPweMv-48">
          <mxGeometry width="30" height="30" as="geometry" />
        </mxCell>
        <mxCell id="tcsV4JsmrNK6wtAPweMv-50" value="Manufacturer_id" style="shape=partialRectangle;connectable=0;fillColor=none;top=0;left=0;bottom=0;right=0;align=left;spacingLeft=6;fontStyle=5;overflow=hidden;" vertex="1" parent="tcsV4JsmrNK6wtAPweMv-48">
          <mxGeometry x="30" width="150" height="30" as="geometry" />
        </mxCell>
        <mxCell id="tcsV4JsmrNK6wtAPweMv-51" value="" style="shape=partialRectangle;collapsible=0;dropTarget=0;pointerEvents=0;fillColor=none;top=0;left=0;bottom=0;right=0;points=[[0,0.5],[1,0.5]];portConstraint=eastwest;" vertex="1" parent="tcsV4JsmrNK6wtAPweMv-47">
          <mxGeometry y="60" width="180" height="30" as="geometry" />
        </mxCell>
        <mxCell id="tcsV4JsmrNK6wtAPweMv-52" value="" style="shape=partialRectangle;connectable=0;fillColor=none;top=0;left=0;bottom=0;right=0;editable=1;overflow=hidden;" vertex="1" parent="tcsV4JsmrNK6wtAPweMv-51">
          <mxGeometry width="30" height="30" as="geometry" />
        </mxCell>
        <mxCell id="tcsV4JsmrNK6wtAPweMv-53" value="AMD" style="shape=partialRectangle;connectable=0;fillColor=none;top=0;left=0;bottom=0;right=0;align=left;spacingLeft=6;overflow=hidden;" vertex="1" parent="tcsV4JsmrNK6wtAPweMv-51">
          <mxGeometry x="30" width="150" height="30" as="geometry" />
        </mxCell>
        <mxCell id="tcsV4JsmrNK6wtAPweMv-54" value="" style="shape=partialRectangle;collapsible=0;dropTarget=0;pointerEvents=0;fillColor=none;top=0;left=0;bottom=0;right=0;points=[[0,0.5],[1,0.5]];portConstraint=eastwest;" vertex="1" parent="tcsV4JsmrNK6wtAPweMv-47">
          <mxGeometry y="90" width="180" height="30" as="geometry" />
        </mxCell>
        <mxCell id="tcsV4JsmrNK6wtAPweMv-55" value="" style="shape=partialRectangle;connectable=0;fillColor=none;top=0;left=0;bottom=0;right=0;editable=1;overflow=hidden;" vertex="1" parent="tcsV4JsmrNK6wtAPweMv-54">
          <mxGeometry width="30" height="30" as="geometry" />
        </mxCell>
        <mxCell id="tcsV4JsmrNK6wtAPweMv-56" value="Intel_corp" style="shape=partialRectangle;connectable=0;fillColor=none;top=0;left=0;bottom=0;right=0;align=left;spacingLeft=6;overflow=hidden;" vertex="1" parent="tcsV4JsmrNK6wtAPweMv-54">
          <mxGeometry x="30" width="150" height="30" as="geometry" />
        </mxCell>
        <mxCell id="tcsV4JsmrNK6wtAPweMv-57" value="" style="shape=partialRectangle;collapsible=0;dropTarget=0;pointerEvents=0;fillColor=none;top=0;left=0;bottom=0;right=0;points=[[0,0.5],[1,0.5]];portConstraint=eastwest;" vertex="1" parent="tcsV4JsmrNK6wtAPweMv-47">
          <mxGeometry y="120" width="180" height="30" as="geometry" />
        </mxCell>
        <mxCell id="tcsV4JsmrNK6wtAPweMv-58" value="" style="shape=partialRectangle;connectable=0;fillColor=none;top=0;left=0;bottom=0;right=0;editable=1;overflow=hidden;" vertex="1" parent="tcsV4JsmrNK6wtAPweMv-57">
          <mxGeometry width="30" height="30" as="geometry" />
        </mxCell>
        <mxCell id="tcsV4JsmrNK6wtAPweMv-59" value="Nvidia" style="shape=partialRectangle;connectable=0;fillColor=none;top=0;left=0;bottom=0;right=0;align=left;spacingLeft=6;overflow=hidden;" vertex="1" parent="tcsV4JsmrNK6wtAPweMv-57">
          <mxGeometry x="30" width="150" height="30" as="geometry" />
        </mxCell>
        <mxCell id="tcsV4JsmrNK6wtAPweMv-60" value="" style="shape=partialRectangle;collapsible=0;dropTarget=0;pointerEvents=0;fillColor=none;top=0;left=0;bottom=0;right=0;points=[[0,0.5],[1,0.5]];portConstraint=eastwest;" vertex="1" parent="tcsV4JsmrNK6wtAPweMv-47">
          <mxGeometry y="150" width="180" height="30" as="geometry" />
        </mxCell>
        <mxCell id="tcsV4JsmrNK6wtAPweMv-61" value="" style="shape=partialRectangle;connectable=0;fillColor=none;top=0;left=0;bottom=0;right=0;editable=1;overflow=hidden;" vertex="1" parent="tcsV4JsmrNK6wtAPweMv-60">
          <mxGeometry width="30" height="30" as="geometry" />
        </mxCell>
        <mxCell id="tcsV4JsmrNK6wtAPweMv-62" value="Radeon" style="shape=partialRectangle;connectable=0;fillColor=none;top=0;left=0;bottom=0;right=0;align=left;spacingLeft=6;overflow=hidden;" vertex="1" parent="tcsV4JsmrNK6wtAPweMv-60">
          <mxGeometry x="30" width="150" height="30" as="geometry" />
        </mxCell>
        <mxCell id="tcsV4JsmrNK6wtAPweMv-72" value="" style="shape=partialRectangle;collapsible=0;dropTarget=0;pointerEvents=0;fillColor=none;top=0;left=0;bottom=0;right=0;points=[[0,0.5],[1,0.5]];portConstraint=eastwest;" vertex="1" parent="tcsV4JsmrNK6wtAPweMv-47">
          <mxGeometry y="180" width="180" height="30" as="geometry" />
        </mxCell>
        <mxCell id="tcsV4JsmrNK6wtAPweMv-73" value="" style="shape=partialRectangle;connectable=0;fillColor=none;top=0;left=0;bottom=0;right=0;editable=1;overflow=hidden;" vertex="1" parent="tcsV4JsmrNK6wtAPweMv-72">
          <mxGeometry width="30" height="30" as="geometry" />
        </mxCell>
        <mxCell id="tcsV4JsmrNK6wtAPweMv-74" value="Gigabyte" style="shape=partialRectangle;connectable=0;fillColor=none;top=0;left=0;bottom=0;right=0;align=left;spacingLeft=6;overflow=hidden;" vertex="1" parent="tcsV4JsmrNK6wtAPweMv-72">
          <mxGeometry x="30" width="150" height="30" as="geometry" />
        </mxCell>
        <mxCell id="tcsV4JsmrNK6wtAPweMv-68" value="" style="shape=partialRectangle;collapsible=0;dropTarget=0;pointerEvents=0;fillColor=none;top=0;left=0;bottom=0;right=0;points=[[0,0.5],[1,0.5]];portConstraint=eastwest;" vertex="1" parent="tcsV4JsmrNK6wtAPweMv-47">
          <mxGeometry y="210" width="180" height="30" as="geometry" />
        </mxCell>
        <mxCell id="tcsV4JsmrNK6wtAPweMv-69" value="" style="shape=partialRectangle;connectable=0;fillColor=none;top=0;left=0;bottom=0;right=0;editable=1;overflow=hidden;" vertex="1" parent="tcsV4JsmrNK6wtAPweMv-68">
          <mxGeometry width="30" height="30" as="geometry" />
        </mxCell>
        <mxCell id="tcsV4JsmrNK6wtAPweMv-70" value="Kingston" style="shape=partialRectangle;connectable=0;fillColor=none;top=0;left=0;bottom=0;right=0;align=left;spacingLeft=6;overflow=hidden;" vertex="1" parent="tcsV4JsmrNK6wtAPweMv-68">
          <mxGeometry x="30" width="150" height="30" as="geometry" />
        </mxCell>
        <mxCell id="tcsV4JsmrNK6wtAPweMv-64" value="" style="shape=partialRectangle;collapsible=0;dropTarget=0;pointerEvents=0;fillColor=none;top=0;left=0;bottom=0;right=0;points=[[0,0.5],[1,0.5]];portConstraint=eastwest;" vertex="1" parent="tcsV4JsmrNK6wtAPweMv-47">
          <mxGeometry y="240" width="180" height="30" as="geometry" />
        </mxCell>
        <mxCell id="tcsV4JsmrNK6wtAPweMv-65" value="" style="shape=partialRectangle;connectable=0;fillColor=none;top=0;left=0;bottom=0;right=0;editable=1;overflow=hidden;" vertex="1" parent="tcsV4JsmrNK6wtAPweMv-64">
          <mxGeometry width="30" height="30" as="geometry" />
        </mxCell>
        <mxCell id="tcsV4JsmrNK6wtAPweMv-66" value="Asus" style="shape=partialRectangle;connectable=0;fillColor=none;top=0;left=0;bottom=0;right=0;align=left;spacingLeft=6;overflow=hidden;" vertex="1" parent="tcsV4JsmrNK6wtAPweMv-64">
          <mxGeometry x="30" width="150" height="30" as="geometry" />
        </mxCell>
        <mxCell id="tcsV4JsmrNK6wtAPweMv-115" value="" style="shape=partialRectangle;collapsible=0;dropTarget=0;pointerEvents=0;fillColor=none;top=0;left=0;bottom=0;right=0;points=[[0,0.5],[1,0.5]];portConstraint=eastwest;" vertex="1" parent="tcsV4JsmrNK6wtAPweMv-47">
          <mxGeometry y="270" width="180" height="30" as="geometry" />
        </mxCell>
        <mxCell id="tcsV4JsmrNK6wtAPweMv-116" value="" style="shape=partialRectangle;connectable=0;fillColor=none;top=0;left=0;bottom=0;right=0;editable=1;overflow=hidden;" vertex="1" parent="tcsV4JsmrNK6wtAPweMv-115">
          <mxGeometry width="30" height="30" as="geometry" />
        </mxCell>
        <mxCell id="tcsV4JsmrNK6wtAPweMv-117" value="Other_Name" style="shape=partialRectangle;connectable=0;fillColor=none;top=0;left=0;bottom=0;right=0;align=left;spacingLeft=6;overflow=hidden;" vertex="1" parent="tcsV4JsmrNK6wtAPweMv-115">
          <mxGeometry x="30" width="150" height="30" as="geometry" />
        </mxCell>
        <mxCell id="tcsV4JsmrNK6wtAPweMv-75" value="Types_of_component" style="shape=table;startSize=30;container=1;collapsible=1;childLayout=tableLayout;fixedRows=1;rowLines=0;fontStyle=1;align=center;resizeLast=1;" vertex="1" parent="1">
          <mxGeometry x="40" y="270" width="180" height="250" as="geometry" />
        </mxCell>
        <mxCell id="tcsV4JsmrNK6wtAPweMv-76" value="" style="shape=partialRectangle;collapsible=0;dropTarget=0;pointerEvents=0;fillColor=none;top=0;left=0;bottom=1;right=0;points=[[0,0.5],[1,0.5]];portConstraint=eastwest;" vertex="1" parent="tcsV4JsmrNK6wtAPweMv-75">
          <mxGeometry y="30" width="180" height="30" as="geometry" />
        </mxCell>
        <mxCell id="tcsV4JsmrNK6wtAPweMv-77" value="PK" style="shape=partialRectangle;connectable=0;fillColor=none;top=0;left=0;bottom=0;right=0;fontStyle=1;overflow=hidden;" vertex="1" parent="tcsV4JsmrNK6wtAPweMv-76">
          <mxGeometry width="30" height="30" as="geometry" />
        </mxCell>
        <mxCell id="tcsV4JsmrNK6wtAPweMv-78" value="Type_id" style="shape=partialRectangle;connectable=0;fillColor=none;top=0;left=0;bottom=0;right=0;align=left;spacingLeft=6;fontStyle=5;overflow=hidden;" vertex="1" parent="tcsV4JsmrNK6wtAPweMv-76">
          <mxGeometry x="30" width="150" height="30" as="geometry" />
        </mxCell>
        <mxCell id="tcsV4JsmrNK6wtAPweMv-79" value="" style="shape=partialRectangle;collapsible=0;dropTarget=0;pointerEvents=0;fillColor=none;top=0;left=0;bottom=0;right=0;points=[[0,0.5],[1,0.5]];portConstraint=eastwest;" vertex="1" parent="tcsV4JsmrNK6wtAPweMv-75">
          <mxGeometry y="60" width="180" height="30" as="geometry" />
        </mxCell>
        <mxCell id="tcsV4JsmrNK6wtAPweMv-80" value="" style="shape=partialRectangle;connectable=0;fillColor=none;top=0;left=0;bottom=0;right=0;editable=1;overflow=hidden;" vertex="1" parent="tcsV4JsmrNK6wtAPweMv-79">
          <mxGeometry width="30" height="30" as="geometry" />
        </mxCell>
        <mxCell id="tcsV4JsmrNK6wtAPweMv-81" value="Motherboard" style="shape=partialRectangle;connectable=0;fillColor=none;top=0;left=0;bottom=0;right=0;align=left;spacingLeft=6;overflow=hidden;" vertex="1" parent="tcsV4JsmrNK6wtAPweMv-79">
          <mxGeometry x="30" width="150" height="30" as="geometry" />
        </mxCell>
        <mxCell id="tcsV4JsmrNK6wtAPweMv-82" value="" style="shape=partialRectangle;collapsible=0;dropTarget=0;pointerEvents=0;fillColor=none;top=0;left=0;bottom=0;right=0;points=[[0,0.5],[1,0.5]];portConstraint=eastwest;" vertex="1" parent="tcsV4JsmrNK6wtAPweMv-75">
          <mxGeometry y="90" width="180" height="30" as="geometry" />
        </mxCell>
        <mxCell id="tcsV4JsmrNK6wtAPweMv-83" value="" style="shape=partialRectangle;connectable=0;fillColor=none;top=0;left=0;bottom=0;right=0;editable=1;overflow=hidden;" vertex="1" parent="tcsV4JsmrNK6wtAPweMv-82">
          <mxGeometry width="30" height="30" as="geometry" />
        </mxCell>
        <mxCell id="tcsV4JsmrNK6wtAPweMv-84" value="Graphics_card" style="shape=partialRectangle;connectable=0;fillColor=none;top=0;left=0;bottom=0;right=0;align=left;spacingLeft=6;overflow=hidden;" vertex="1" parent="tcsV4JsmrNK6wtAPweMv-82">
          <mxGeometry x="30" width="150" height="30" as="geometry" />
        </mxCell>
        <mxCell id="tcsV4JsmrNK6wtAPweMv-85" value="" style="shape=partialRectangle;collapsible=0;dropTarget=0;pointerEvents=0;fillColor=none;top=0;left=0;bottom=0;right=0;points=[[0,0.5],[1,0.5]];portConstraint=eastwest;" vertex="1" parent="tcsV4JsmrNK6wtAPweMv-75">
          <mxGeometry y="120" width="180" height="30" as="geometry" />
        </mxCell>
        <mxCell id="tcsV4JsmrNK6wtAPweMv-86" value="" style="shape=partialRectangle;connectable=0;fillColor=none;top=0;left=0;bottom=0;right=0;editable=1;overflow=hidden;" vertex="1" parent="tcsV4JsmrNK6wtAPweMv-85">
          <mxGeometry width="30" height="30" as="geometry" />
        </mxCell>
        <mxCell id="tcsV4JsmrNK6wtAPweMv-87" value="CPU" style="shape=partialRectangle;connectable=0;fillColor=none;top=0;left=0;bottom=0;right=0;align=left;spacingLeft=6;overflow=hidden;" vertex="1" parent="tcsV4JsmrNK6wtAPweMv-85">
          <mxGeometry x="30" width="150" height="30" as="geometry" />
        </mxCell>
        <mxCell id="tcsV4JsmrNK6wtAPweMv-89" value="" style="shape=partialRectangle;collapsible=0;dropTarget=0;pointerEvents=0;fillColor=none;top=0;left=0;bottom=0;right=0;points=[[0,0.5],[1,0.5]];portConstraint=eastwest;" vertex="1" parent="tcsV4JsmrNK6wtAPweMv-75">
          <mxGeometry y="150" width="180" height="30" as="geometry" />
        </mxCell>
        <mxCell id="tcsV4JsmrNK6wtAPweMv-90" value="" style="shape=partialRectangle;connectable=0;fillColor=none;top=0;left=0;bottom=0;right=0;editable=1;overflow=hidden;" vertex="1" parent="tcsV4JsmrNK6wtAPweMv-89">
          <mxGeometry width="30" height="30" as="geometry" />
        </mxCell>
        <mxCell id="tcsV4JsmrNK6wtAPweMv-91" value="RAM" style="shape=partialRectangle;connectable=0;fillColor=none;top=0;left=0;bottom=0;right=0;align=left;spacingLeft=6;overflow=hidden;" vertex="1" parent="tcsV4JsmrNK6wtAPweMv-89">
          <mxGeometry x="30" width="150" height="30" as="geometry" />
        </mxCell>
        <mxCell id="tcsV4JsmrNK6wtAPweMv-93" value="" style="shape=partialRectangle;collapsible=0;dropTarget=0;pointerEvents=0;fillColor=none;top=0;left=0;bottom=0;right=0;points=[[0,0.5],[1,0.5]];portConstraint=eastwest;" vertex="1" parent="tcsV4JsmrNK6wtAPweMv-75">
          <mxGeometry y="180" width="180" height="30" as="geometry" />
        </mxCell>
        <mxCell id="tcsV4JsmrNK6wtAPweMv-94" value="" style="shape=partialRectangle;connectable=0;fillColor=none;top=0;left=0;bottom=0;right=0;editable=1;overflow=hidden;" vertex="1" parent="tcsV4JsmrNK6wtAPweMv-93">
          <mxGeometry width="30" height="30" as="geometry" />
        </mxCell>
        <mxCell id="tcsV4JsmrNK6wtAPweMv-95" value="Сooling_system" style="shape=partialRectangle;connectable=0;fillColor=none;top=0;left=0;bottom=0;right=0;align=left;spacingLeft=6;overflow=hidden;" vertex="1" parent="tcsV4JsmrNK6wtAPweMv-93">
          <mxGeometry x="30" width="150" height="30" as="geometry" />
        </mxCell>
        <mxCell id="tcsV4JsmrNK6wtAPweMv-119" value="" style="shape=partialRectangle;collapsible=0;dropTarget=0;pointerEvents=0;fillColor=none;top=0;left=0;bottom=0;right=0;points=[[0,0.5],[1,0.5]];portConstraint=eastwest;" vertex="1" parent="tcsV4JsmrNK6wtAPweMv-75">
          <mxGeometry y="210" width="180" height="30" as="geometry" />
        </mxCell>
        <mxCell id="tcsV4JsmrNK6wtAPweMv-120" value="" style="shape=partialRectangle;connectable=0;fillColor=none;top=0;left=0;bottom=0;right=0;editable=1;overflow=hidden;" vertex="1" parent="tcsV4JsmrNK6wtAPweMv-119">
          <mxGeometry width="30" height="30" as="geometry" />
        </mxCell>
        <mxCell id="tcsV4JsmrNK6wtAPweMv-121" value="Other_Type" style="shape=partialRectangle;connectable=0;fillColor=none;top=0;left=0;bottom=0;right=0;align=left;spacingLeft=6;overflow=hidden;" vertex="1" parent="tcsV4JsmrNK6wtAPweMv-119">
          <mxGeometry x="30" width="150" height="30" as="geometry" />
        </mxCell>
      </root>
    </mxGraphModel>
  </diagram>
</mxfile>
